<?xml version="1.0" encoding="utf-8"?>
<!-- Generator: Adobe Illustrator 22.1.0, SVG Export Plug-In . SVG Version: 6.00 Build 0)  -->
<svg version="1.1" id="Livello_1" xmlns="http://www.w3.org/2000/svg" xmlns:xlink="http://www.w3.org/1999/xlink" x="0px" y="0px"
	 viewBox="0 0 360.8 198.3" style="enable-background:new 0 0 360.8 198.3;" xml:space="preserve">
<style type="text/css">
	.st0{fill:#FFFFFF;}
</style>
<g>
	<polygon class="st0" points="237.7,123.4 242.9,116.2 242.9,115.3 221.6,115.3 221.6,116.2 226.9,123.4 226.9,180.3 220.6,187.5 
		220.6,188.4 243.9,188.4 243.9,187.5 237.7,180.3 	"/>
	<path class="st0" d="M179.9,115.3h-25.3v0.9l6.3,7.2v56.9l-6.3,7.2v0.9h24.2v-0.9l-7.2-7.2v-28.6c3.3,1.7,7.5,2.5,12.4,2.5
		c14.3,0,24-8.2,24-19.7C208.1,122.4,197.5,115.3,179.9,115.3z M181,150.3c-3.6,0-6.8-0.8-9.3-2.2V119h6.8
		c11.5,0,18.2,6.1,18.2,16.4C196.6,144.6,191,150.3,181,150.3z"/>
	<path class="st0" d="M44.2,114.2l-10.3,4.6l3.4,7.2l-23.4,54.4l-7,7.2v0.9h17.8v-0.9l-6.3-7.2l7.6-17.8h27.1l7.6,17.8l-6.2,7.2v0.9
		h24.2v-0.9l-6.2-7.2L44.2,114.2z M27.7,158.7L39.5,131l11.9,27.7H27.7z"/>
	<path class="st0" d="M134.3,173.7c-2.2,7-6.8,10.9-13.6,10.9h-13.4v-61.3l7-7.2v-0.9H90.5v0.9l6,7.2v56.9l-6.3,7.2v0.9H122
		c11.6,0,17.1-1.7,21.2-6.8l-8.3-8L134.3,173.7z"/>
	<polygon class="st0" points="94.7,83.7 88.6,76.5 88.6,19.6 93.7,12.4 93.7,11.6 72.5,11.6 72.5,12.4 77.8,19.6 77.8,76.5 
		71.5,83.7 71.5,84.6 94.7,84.6 	"/>
	<path class="st0" d="M317.4,10.2c-21.6,0-36.8,16-36.8,38.3c0,22.2,15.5,37.6,37.5,37.6c21.6,0,36.8-16,36.8-38.3
		C354.9,25.6,339.4,10.2,317.4,10.2z M319.3,82.5c-15.4,0-26.6-15.1-26.6-36.8c0-19.6,9.5-32.1,23.6-32.1
		c15.4,0,26.6,15.1,26.6,36.8C342.9,70,333.3,82.5,319.3,82.5z"/>
	<path class="st0" d="M16.1,79.8c4.5,3.9,10.4,6.2,17.3,6.2c12.5,0,23.5-7.9,23.5-21.4c0-10.2-5.8-17.3-19.4-23.3
		c-12.9-5.6-17-9.6-17-16.3c0-7.5,5.3-11.4,12-11.4c8,0,12.6,5.8,12.4,15.5l0.7,0.4l8.9-7.8c-4-7.2-11.9-11.5-21.3-11.5
		c-10.6,0-21.9,5.6-21.9,18.6c0,9.2,5.6,15.8,18.5,21.4c13.7,6,17.9,10.4,17.9,18.3c0,9.1-6.5,13.9-15,13.9
		c-10.1,0-17.3-6.7-18.8-18.1H10v20.4h0.9L16.1,79.8z"/>
	<polygon class="st0" points="254.6,10.4 244.4,12.3 245.7,19.1 228.1,69.1 226.2,61 208.1,10.4 198.2,14.1 200.1,19.2 190.1,76.5 
		182.7,83.7 182.7,84.6 202,84.6 202,83.7 194.3,76.5 202.9,27 223.4,84.6 227,84.6 247.1,27.2 255.6,76.5 250,83.7 250,84.6 
		271.7,84.6 271.7,83.7 266.5,76.5 	"/>
	<path class="st0" d="M151,84.6h24.2v-0.9l-6.2-7.2l-28.5-66.1L130.2,15l3.4,7.2l-23.4,54.4l-7,7.2v0.9H121v-0.9l-6.3-7.2l7.6-17.8
		h27.1l7.6,17.8l-6.2,7.2v0.8H151z M124.1,55l11.8-27.7L147.8,55H124.1z"/>
</g>
</svg>
