<?xml version="1.0" encoding="utf-8"?>
<!-- Generator: Adobe Illustrator 22.1.0, SVG Export Plug-In . SVG Version: 6.00 Build 0)  -->
<svg version="1.1" id="Livello_1" xmlns="http://www.w3.org/2000/svg" xmlns:xlink="http://www.w3.org/1999/xlink" x="0px" y="0px"
	 viewBox="0 0 57.1 57.6" style="enable-background:new 0 0 57.1 57.6;" xml:space="preserve">
<style type="text/css">
	.st0{clip-path:url(#SVGID_2_);fill:#FFFFFF;}
</style>
<g>
	<defs>
		<rect id="SVGID_1_" x="1" y="0.8" width="55.3" height="55.3"/>
	</defs>
	<use xlink:href="#SVGID_1_"  style="overflow:visible;fill:#FFFFFF;"/>
	<clipPath id="SVGID_2_">
		<use xlink:href="#SVGID_1_"  style="overflow:visible;"/>
	</clipPath>
	<path class="st0" d="M34.7,26.9l2-2l-8.1-8l-7.9,7.9l2,2l4.6-4.6v17.9h2.8V22.4L34.7,26.9z M53.5,28.5c0,13.7-11.1,24.8-24.8,24.8
		S3.8,42.2,3.8,28.5S15,3.7,28.7,3.7S53.5,14.8,53.5,28.5 M56.3,28.5c0-15.2-12.4-27.7-27.7-27.7C13.4,0.8,1,13.2,1,28.5
		s12.4,27.7,27.7,27.7C43.9,56.1,56.3,43.7,56.3,28.5"/>
</g>
</svg>
